<svg xmlns="http://www.w3.org/2000/svg" viewBox="0 0 128 88" fill="none" stroke="currentColor" stroke-width="3" stroke-linecap="round" stroke-linejoin="round" role="img" aria-label="Xbox 360 Controller">
  <!-- Theme-neutral: strokes inherit currentColor so light/dark themes both render. -->
  <path d="M34 14 C46 8 82 8 94 14 C106 20 118 44 120 60 C121 72 114 80 106 78 C97 76 92 62 84 58 C72 53 56 53 44 58 C36 62 31 76 22 78 C14 80 7 72 8 60 C10 44 22 20 34 14 Z"/>
  <circle cx="42" cy="32" r="9"/>
  <circle cx="42" cy="32" r="3" fill="currentColor" stroke="none"/>
  <circle cx="76" cy="48" r="9"/>
  <circle cx="76" cy="48" r="3" fill="currentColor" stroke="none"/>
  <g stroke="none" fill="currentColor">
    <circle cx="92" cy="24" r="4"/>
    <circle cx="104" cy="34" r="4"/>
    <circle cx="80" cy="34" r="4"/>
    <circle cx="92" cy="44" r="4"/>
  </g>
  <path d="M46 42 h6 v-6 h6 v6 h6 v6 h-6 v6 h-6 v-6 h-6 Z" transform="translate(-16 2)"/>
  <circle cx="64" cy="28" r="6"/>
</svg>
