<svg viewBox="0 0 64 64" xmlns="http://www.w3.org/2000/svg"><path d="M 27.80 10.40 L 26.66 4.51 L 37.34 4.51 L 36.20 10.40 A 22 22 0 0 1 44.30 13.76 L 44.30 13.76 L 47.66 8.79 L 55.21 16.34 L 50.24 19.70 A 22 22 0 0 1 53.60 27.80 L 53.60 27.80 L 59.49 26.66 L 59.49 37.34 L 53.60 36.20 A 22 22 0 0 1 50.24 44.30 L 50.24 44.30 L 55.21 47.66 L 47.66 55.21 L 44.30 50.24 A 22 22 0 0 1 36.20 53.60 L 36.20 53.60 L 37.34 59.49 L 26.66 59.49 L 27.80 53.60 A 22 22 0 0 1 19.70 50.24 L 19.70 50.24 L 16.34 55.21 L 8.79 47.66 L 13.76 44.30 A 22 22 0 0 1 10.40 36.20 L 10.40 36.20 L 4.51 37.34 L 4.51 26.66 L 10.40 27.80 A 22 22 0 0 1 13.76 19.70 L 13.76 19.70 L 8.79 16.34 L 16.34 8.79 L 19.70 13.76 A 22 22 0 0 1 27.80 10.40 Z" fill="#8FCFE3"></path><circle cx="32" cy="32" r="7" fill="#0f1620"></circle></svg>