<svg viewBox="0 0 64 64" xmlns="http://www.w3.org/2000/svg"><defs><clipPath id="globe-clip"><circle cx="32" cy="32" r="24"></circle></clipPath></defs><circle cx="32" cy="32" r="24" fill="#8FCFE3"></circle><g clip-path="url(#globe-clip)" fill="#ffffff" opacity="0.55"><path d=" M11 18 Q9 14 14 12 Q18 11 21 13 L24 12 Q28 12 27 16 L30 17 Q32 19 30 22 L26 25 Q24 28 21 28 L18 31 Q16 33 18 35 L21 38 Q22 41 19 41 L15 39 Q11 35 10 30 Q8 24 11 18 Z "></path><path d="M22 36 L25 35 L26 38 L24 40 Z"></path><path d=" M24 40 Q28 38 30 42 L31 46 Q31 50 28 52 L26 55 Q24 57 23 55 L22 50 L21 45 Q21 41 24 40 Z "></path><path d="M34 14 Q38 12 40 15 L39 19 Q36 20 34 18 Z"></path><path d="M38 19 L44 18 L46 21 L44 23 L41 24 L38 22 Z"></path><path d=" M38 25 L44 24 Q47 25 47 28 L46 32 L44 36 L42 40 L40 44 Q38 46 37 44 L36 40 L36 35 L37 30 Z "></path><path d="M46 26 L49 26 L49 29 L47 30 Z"></path><path d="M45 39 L47 38 L47 42 L46 43 Z"></path></g></svg>