<svg viewBox="0 0 64 64" xmlns="http://www.w3.org/2000/svg"><g stroke="#8FCFE3" stroke-width="3" fill="none" stroke-linecap="round"><path d="M46 12 a6 6 0 0 1 4 6"></path><path d="M50 8 a12 12 0 0 1 8 12"></path></g><rect x="30" y="34" width="4" height="14" fill="#8FCFE3"></rect><path d="M28 44 L36 44 L46 58 L42 58 L32 50 L26 58 L18 58 Z" fill="#8FCFE3"></path><rect x="14" y="56" width="36" height="4" rx="1" fill="#8FCFE3"></rect><g transform="rotate(-28 32 28)"><ellipse cx="32" cy="28" rx="18" ry="6" fill="#8FCFE3"></ellipse><ellipse cx="32" cy="28" rx="14" ry="3" fill="#ffffff" opacity="0.55"></ellipse><circle cx="32" cy="28" r="1.8" fill="#8FCFE3"></circle><rect x="31" y="20" width="2" height="8" fill="#8FCFE3"></rect><path d="M28 16 L36 16 L34 20 L30 20 Z" fill="#8FCFE3"></path></g></svg>