<svg viewBox="0 0 64 64" xmlns="http://www.w3.org/2000/svg"><rect x="4" y="28" width="18" height="8" rx="1" fill="#8FCFE3"></rect><rect x="42" y="28" width="18" height="8" rx="1" fill="#8FCFE3"></rect><g fill="#ffffff" opacity="0.55"><rect x="8" y="29" width="1" height="6"></rect><rect x="12" y="29" width="1" height="6"></rect><rect x="16" y="29" width="1" height="6"></rect><rect x="46" y="29" width="1" height="6"></rect><rect x="50" y="29" width="1" height="6"></rect><rect x="54" y="29" width="1" height="6"></rect></g><rect x="22" y="31" width="4" height="2" fill="#8FCFE3"></rect><rect x="38" y="31" width="4" height="2" fill="#8FCFE3"></rect><rect x="26" y="24" width="12" height="16" rx="2" fill="#8FCFE3"></rect><rect x="28" y="26" width="8" height="3" rx="1" fill="#ffffff" opacity="0.55"></rect><rect x="31" y="16" width="2" height="8" fill="#8FCFE3"></rect><path d="M28 14 Q32 10 36 14 L34 16 Q32 13 30 16 Z" fill="#8FCFE3"></path></svg>