<?xml version="1.0"?>
<svg xmlns="http://www.w3.org/2000/svg" viewBox="0 0 200 200" role="img" aria-label="Satellite — master mark">
  <title>Satellite — master mark</title>
  <desc>Gear-framed brand mark. Use as the canonical Satellite identity at hero sizes (≥ 48px).</desc>
  <defs>
      <mask id="sat-master" maskUnits="userSpaceOnUse">
        <rect x="0" y="0" width="200" height="200" fill="white"></rect>
        
  <g fill="black">
    <rect x="2" y="86" width="76" height="30" rx="3"></rect>
    <rect x="122" y="86" width="76" height="30" rx="3"></rect>
    <rect x="92" y="6" width="16" height="82" rx="2"></rect>
  </g>

      </mask>
    </defs>
    <g mask="url(#sat-master)">
      <path d="M 85.50 25.40 L 82.06 7.73 L 117.94 7.73 L 114.50 25.40 A 76 76 0 0 1 142.50 36.99 L 142.50 36.99 L 152.56 22.07 L 177.93 47.44 L 163.01 57.50 A 76 76 0 0 1 174.60 85.50 L 174.60 85.50 L 192.27 82.06 L 192.27 117.94 L 174.60 114.50 A 76 76 0 0 1 163.01 142.50 L 163.01 142.50 L 177.93 152.56 L 152.56 177.93 L 142.50 163.01 A 76 76 0 0 1 114.50 174.60 L 114.50 174.60 L 117.94 192.27 L 82.06 192.27 L 85.50 174.60 A 76 76 0 0 1 57.50 163.01 L 57.50 163.01 L 47.44 177.93 L 22.07 152.56 L 36.99 142.50 A 76 76 0 0 1 25.40 114.50 L 25.40 114.50 L 7.73 117.94 L 7.73 82.06 L 25.40 85.50 A 76 76 0 0 1 36.99 57.50 L 36.99 57.50 L 22.07 47.44 L 47.44 22.07 L 57.50 36.99 A 76 76 0 0 1 85.50 25.40 Z" fill="none" stroke="#8FCFE3" stroke-width="10" stroke-linejoin="round"></path>
      <circle cx="100" cy="100" r="58" fill="none" stroke="#8FCFE3" stroke-width="10"></circle>
    </g>
    
  <rect x="72" y="99" width="12" height="4" fill="#8FCFE3"></rect>
  <rect x="116" y="99" width="12" height="4" fill="#8FCFE3"></rect>
  <rect x="8" y="92" width="66" height="18" rx="2" fill="#8FCFE3"></rect>
  <rect x="126" y="92" width="66" height="18" rx="2" fill="#8FCFE3"></rect>
  <g fill="#ffffff" opacity="0.55">
    <rect x="20" y="93" width="1.5" height="16"></rect><rect x="32" y="93" width="1.5" height="16"></rect>
    <rect x="44" y="93" width="1.5" height="16"></rect><rect x="56" y="93" width="1.5" height="16"></rect>
    <rect x="68" y="93" width="1.5" height="16"></rect>
    <rect x="138" y="93" width="1.5" height="16"></rect><rect x="150" y="93" width="1.5" height="16"></rect>
    <rect x="162" y="93" width="1.5" height="16"></rect><rect x="174" y="93" width="1.5" height="16"></rect>
    <rect x="186" y="93" width="1.5" height="16"></rect>
  </g>
  <rect x="82" y="82" width="36" height="36" rx="3" fill="#8FCFE3"></rect>
  <rect x="86" y="88" width="28" height="8" rx="1" fill="#ffffff" opacity="0.55"></rect>
  <rect x="86" y="102" width="28" height="4" rx="1" fill="#ffffff" opacity="0.35"></rect>
  <rect x="98" y="12" width="4" height="72" fill="#8FCFE3"></rect>
  <path d="M 88 18 Q 100 6 112 18 L 108 20 Q 100 12 92 20 Z" fill="#8FCFE3"></path>
  <circle cx="100" cy="10" r="2.5" fill="#8FCFE3"></circle>
</svg>